<svg xmlns="http://www.w3.org/2000/svg" version="1.1" xmlns:xlink="http://www.w3.org/1999/xlink" xmlns:svgjs="http://svgjs.dev/svgjs" width="2000" height="2250" viewBox="0 0 2000 2250"><g transform="matrix(1,0,0,1,0,0)"><svg viewBox="0 0 320 360" data-background-color="#ffffff" preserveAspectRatio="xMidYMid meet" height="2250" width="2000" xmlns="http://www.w3.org/2000/svg" xmlns:xlink="http://www.w3.org/1999/xlink"><g id="tight-bounds" transform="matrix(1,0,0,1,0,0)"><svg viewBox="0 0 320 360" height="360" width="320"><g><svg></svg></g><g><svg viewBox="0 0 320 360" height="360" width="320"><g><path xmlns="http://www.w3.org/2000/svg" d="M219.58 41.008c0.707 0 6.365 2.829 9.547 3.89-1.061 0.354-3.536-0.707-6.365-1.768 0.707 0 2.122 0.354 3.536 1.06-0.707-0.707-6.011-2.475-6.718-3.182M166.895 30.047c1.061-0.354 13.436 1.414 19.094 1.768 0.354-0.354-0.707-0.354-2.122-0.707 1.768-0.354 5.304 0.707 7.779 1.06-7.425 0.354-15.558-1.768-22.629-1.06-2.475 0-0.707-0.707-2.122-1.061M156.641 30.047c6.365 0 11.315 0 2.121 0.707-1.061-0.354-2.475-0.354-2.121-0.707M256.707 59.395c0.707 0 3.536 3.182 4.95 4.243-0.354 0.354-3.182-2.475-4.596-3.536 0.354 0.354 0 0-0.354-0.707M249.635 54.798c-2.829-2.475-3.889-2.475-4.243-3.889 2.475 1.414 4.243 2.829 4.243 3.889M204.022 32.522c0.354-0.354 1.061 0.354 2.829 0.707-2.122-0.354-1.768 0-1.061 0.707-2.475-0.354-3.182-0.707-2.475-1.414 1.414 0.707 1.768 0.354 0.707 0M103.602 36.765c0-0.354 1.414-1.061 2.475-1.414-1.061 0.707-0.707 1.061 1.061 0.353 0 0.354-2.122 1.061-3.536 1.768 0.707-0.354 1.414-1.414 0-0.707M211.094 28.986c-1.061 0.354-4.95-1.768-8.84-2.475-2.122-0.707 8.486 1.768 8.84 2.475M2.475 203.66c2.122 8.84 0.707 8.486 0 0M2.829 150.621c0.354-1.414 0.707-5.304 1.06-4.95-1.061 8.486-2.829 12.376-3.182 18.74 1.061-5.657-0.354 3.182-0.707 5.304 0.354 2.829 0.354-1.768 1.061-1.06 0.707 1.061-1.414 15.912-0.707 7.779-0.707 7.425 0 15.558 1.414 17.679-1.768 11.315 7.072 36.773 8.84 42.077 0.354 0.354 0-1.768 0.707-0.353 0.707 4.597 3.889 7.779 4.95 12.729 1.061 1.414 5.304 9.193 6.011 10.962 1.414 2.829 2.122 2.475 3.536 5.303 4.243 8.133 10.961 15.912 17.326 23.337 20.508 24.044 51.978 43.845 86.984 50.918 35.006 7.425 71.779 2.122 100.419-11.669 1.768-1.061 1.414-1.414 3.536-2.122 9.901-3.182 21.923-13.436 28.641-17.326 3.182-3.536 11.669-9.547 12.73-13.082 6.011-4.95 12.022-13.083 15.204-18.387 1.768-2.829 3.182-2.829 3.889-4.597-0.354 0 5.657-7.425 7.426-11.668-0.707 0-1.768 2.122-1.768 0 12.729-24.398 19.801-57.282 15.911-79.912 0.707 27.934-6.365 59.05-19.801 78.851-6.011 12.729-18.387 26.519-29.701 36.42-1.768 1.768-3.536 3.889-5.658 5.304-6.718 5.657-14.144 10.254-21.922 14.497-18.387 10.254-38.895 19.094-62.94 19.447 41.37-3.536 78.497-24.398 99.006-49.856-15.558 15.204-22.276 21.215-39.602 30.055-1.414 2.475-13.083 7.425-20.862 9.547 4.597-2.122 14.144-5.657 17.326-8.486-25.812 12.376-54.453 19.448-81.326 15.558 10.254 0 24.751 0.354 38.541-2.121 2.122-0.707 3.182-1.414 5.658-1.768 26.873-6.011 52.685-19.094 71.072-37.481-10.608 9.547-26.519 20.862-36.774 24.398 9.547-5.304 26.873-15.558 32.53-23.337-11.315 11.315-32.53 22.63-45.966 27.58-2.122 0.354 1.414-1.414-2.122 0-4.243 1.061-2.475 1.061-3.536 1.768-16.265 4.597-35.006 8.486-50.563 7.072-2.829-0.354-3.889-1.061-6.365-1.061-2.829-0.354-5.304-0.354-8.486-0.354-12.376-1.414-25.812-6.365-35.713-10.607-5.304-2.475-10.608-4.243-15.912-7.426-4.243-2.475-7.779-5.304-11.314-8.132-13.436-9.901-24.751-19.801-35.36-33.945-19.094-26.519-28.994-59.757-27.58-92.641 1.414-32.884 14.497-65.061 35.359-88.752-1.061 1.061 1.414-2.475 3.536-4.596 0 0.707-0.354 1.768 2.122-0.707 2.122-2.475-0.707-0.707 0.353-2.122 21.923-24.044 60.111-43.492 99.36-44.199 1.414-1.061 3.889-2.475 6.718-1.768 0 0.354-1.768 0.354-1.768 0.354 3.889-0.354 7.425-0.354 9.193 0.353 0.354-0.354-1.414-0.707 0-0.707 2.475 0.707 3.182 0 4.597 0.707-1.061 0-2.122 0-2.829 0.354 8.84 0 14.497 2.122 23.337 2.829-4.597-1.061-5.657-1.061-9.193-2.122 3.889 0.707 5.657 1.414 7.425 1.061-0.707 0-0.354-1.061 0.354-0.707 7.072 1.768 7.779 2.475 15.204 4.95 0.707-0.707-3.182-1.061-4.243-2.122 7.072 2.475 13.436 4.243 17.68 7.072-1.414-1.061-5.657-2.475-8.84-3.889-0.354 0.354 1.061 0.707 1.414 1.414-3.536-1.768-8.486-3.536-13.436-4.243 4.243 1.061 7.072 2.475 8.84 3.182-3.889-0.707-8.84-3.182-14.498-4.243 9.193 2.829 26.519 9.193 37.127 14.851-3.889-2.475-8.486-4.243-10.961-5.657 2.122 0.354 4.597 1.768 4.597 1.06 2.475 1.061 5.657 3.536 7.425 3.89-3.182-2.122-9.547-5.304-11.668-6.365 26.519 12.022 50.21 32.177 65.414 57.989 1.414 2.475 3.536 8.133 5.304 8.84-0.354-1.768-1.768-2.829-3.182-5.657 0.707 0 0.707-1.061 0-2.122-1.414-1.768 0 1.414-1.415-0.354-6.365-11.669-14.144-21.923-26.165-33.237 6.718 6.365 1.768 1.768 0.353-0.354 9.193 8.133 19.801 21.923 24.398 28.995-0.707-1.061-1.061-1.768-0.707-1.768 8.486 14.497 13.79 27.58 19.094 46.32 0.354 0.354 0-1.414 0.707-0.353 3.536 14.851 4.597 27.227 4.243 38.541 2.829-19.094-3.536-48.796-14.851-72.133-1.414-2.829-1.414-0.707-2.829-3.889 0-1.061-1.061-3.182-1.768-4.597-14.144-23.337-31.47-39.956-51.978-53.038 1.414 0.707 4.243 2.829 4.244 2.475-38.188-25.105-82.387-28.641-118.807-20.862-2.475 1.061-3.536 2.122-6.365 3.536 5.304-1.768 8.486-2.122 13.437-3.183 1.061-1.061-4.597 0.354-2.122-0.707 0.354 0.354 4.95-0.707 6.011-0.353 0 0.354-1.414 0.707-1.768 1.06 11.669-2.475 23.691-2.829 33.945-2.121-6.011 0.354-16.972-0.707-20.508 1.061 3.536-0.354 8.486-0.707 11.668-0.354-4.243 0-12.022 0.354-15.558 0.707-0.354-0.354 5.657-1.061 1.768-1.06-1.768 0.354-4.597 0.354-5.657 1.414-30.409 2.829-60.111 18.74-80.973 37.481-4.243 3.536-9.193 7.425-12.375 11.314-7.779 8.84-12.729 17.68-18.387 25.459 3.536-7.425 11.315-18.74 20.508-28.287 9.193-9.547 19.094-17.68 24.398-21.923 0 1.414 8.486-5.304 11.669-7.425-2.122 1.768 1.414-0.707 2.121-0.354 11.315-6.718 20.508-9.193 30.763-13.083-2.475 0.707-4.597 1.414-4.951 1.061 2.475-0.707 3.889-1.414 3.536-1.768-9.901 2.829-25.459 9.547-37.834 16.972 22.276-15.204 50.564-24.398 78.497-24.751 27.934-0.707 55.16 6.365 76.729 17.68 14.497 6.365 28.287 18.033 39.249 29.348 3.182 2.829 0.707-0.707 5.304 4.243-1.414-0.707-2.475-1.414-0.707 0.707 2.829 3.182-0.707-2.475 3.889 3.182-0.354 0-1.768-1.768-1.768-1.061 12.376 10.961 21.923 30.762 27.58 43.846-1.414-5.304-4.95-12.729-7.779-18.033 8.486 15.558 11.315 24.751 14.851 38.541 1.414 1.061-0.707-4.95 0.707-2.121 0.354 2.122 0.707 8.84 2.122 9.9-1.061-6.718-2.829-14.851-4.243-16.265 1.061 0.707-1.768-8.133-3.536-10.254-0.707-5.657-5.657-15.558-9.901-22.984-15.204-29.702-42.431-54.099-72.839-67.536 0-0.707-1.768-1.414-2.476-2.121-30.055-12.729-66.122-16.265-100.773-8.133-35.006 8.486-67.889 28.641-91.227 57.636 1.061-3.536 9.901-10.254 10.255-13.083-10.254 10.961-21.215 25.459-28.641 41.016-7.779 15.558-12.022 31.47-13.79 43.138" fill="#fff" fill-rule="nonzero" stroke="none" stroke-width="1" stroke-linecap="butt" stroke-linejoin="miter" stroke-miterlimit="10" stroke-dasharray="" stroke-dashoffset="0" font-family="none" font-weight="none" font-size="none" text-anchor="none" style="mix-blend-mode: normal" data-fill-palette-color="tertiary"></path></g><g transform="matrix(1,0,0,1,99.84155492248536,90)"><svg viewBox="0 0 120.31689015502927 180" height="180" width="120.31689015502927"><g><svg viewBox="0 0 120.31689015502927 180" height="180" width="120.31689015502927"><g><svg viewBox="0 0 162.24199293286222 242.72202090900274" height="180" width="120.31689015502927"><g><svg viewBox="0 0 162.24199293286222 242.72202090900274" height="242.72202090900274" width="162.24199293286222"><g id="textblocktransform"><svg viewBox="0 0 162.24199293286222 242.72202090900274" height="242.72202090900274" width="162.24199293286222" id="textblock"><g><svg viewBox="0 0 162.24199293286222 178.88760000000002" height="178.88760000000002" width="162.24199293286222"><g transform="matrix(1,0,0,1,0,0)"><svg width="162.24199293286222" viewBox="2.25 -36.5 38.5 42.45000076293945" height="178.88760000000002" data-palette-color="#650874"><path d="M15.1-4.5L14.6-4.5 14.6-31.5 15.1-31.5 15.1-18.25 34.3-18.25 34.3-31.5 34.8-31.5 34.8-4.5 34.3-4.5 34.3-17.75 15.1-17.75 15.1-4.5ZM11 0L18.75 0Q19.7 0 20.13-0.43 20.55-0.85 20.55-1.8L20.55-1.8 20.55-12.9 28.9-12.9 28.9-1.8Q28.9-0.85 29.33-0.43 29.75 0 30.7 0L30.7 0 38.45 0Q39.4 0 39.83-0.43 40.25-0.85 40.25-1.8L40.25-1.8 40.25-34.2Q40.25-35.15 39.83-35.58 39.4-36 38.45-36L38.45-36 30.7-36Q29.75-36 29.33-35.58 28.9-35.15 28.9-34.2L28.9-34.2 28.9-23.35 20.55-23.35 20.55-34.2Q20.55-35.15 20.13-35.58 19.7-36 18.75-36L18.75-36 11-36Q10.05-36 9.63-35.58 9.2-35.15 9.2-34.2L9.2-34.2 9.2-1.8Q9.2-0.85 9.63-0.43 10.05 0 11 0L11 0ZM20.35 0.05L20.35 0.05 13.85 5.45Q13.65 5.65 13.23 5.8 12.8 5.95 12.3 5.95L12.3 5.95 4.55 5.95Q3.35 5.95 2.8 5.4 2.25 4.85 2.25 3.65L2.25 3.65 2.25-28.75Q2.25-29.4 2.43-29.85 2.6-30.3 2.95-30.6L2.95-30.6 9.4-36.05Q9.65-36.25 10.08-36.38 10.5-36.5 11-36.5L11-36.5 18.75-36.5Q19.95-36.5 20.5-35.95 21.05-35.4 21.05-34.2L21.05-34.2 21.05-23.85 21.95-23.85 21.95-28.75Q21.95-29.4 22.13-29.85 22.3-30.3 22.65-30.6L22.65-30.6 29.1-36.05Q29.35-36.25 29.78-36.38 30.2-36.5 30.7-36.5L30.7-36.5 38.45-36.5Q39.65-36.5 40.2-35.95 40.75-35.4 40.75-34.2L40.75-34.2 40.75-1.8Q40.75-1.15 40.58-0.7 40.4-0.25 40.05 0.05L40.05 0.05 33.55 5.45Q33.35 5.65 32.93 5.8 32.5 5.95 32 5.95L32 5.95 24.25 5.95Q23.05 5.95 22.5 5.4 21.95 4.85 21.95 3.65L21.95 3.65 21.95-6.95 21.05-6.95 21.05-1.8Q21.05-1.15 20.88-0.7 20.7-0.25 20.35 0.05Z" opacity="1" transform="matrix(1,0,0,1,0,0)" fill="#fff" class="wordmark-text-0" data-fill-palette-color="primary" id="text-0"></path></svg></g></svg></g><g transform="matrix(1,0,0,1,0,221.11866905760002)"><svg viewBox="0 0 162.24199293286222 21.60335185140272" height="21.60335185140272" width="162.24199293286222"><g transform="matrix(1,0,0,1,0,0)"><svg width="162.24199293286222" viewBox="0 -35.38999938964844 349.8699951171875 46.59000015258789" height="21.60335185140272" data-palette-color="#650874"><path d="M38.09-33.27L45.05-33.27 36.58 0 28.54 0 24.04-17.47Q23.81-18.3 23.21-21.26 22.6-24.22 22.5-25.25L22.5-25.25Q22.4-24.01 21.81-21.28L21.81-21.28 20.98-17.42 16.48 0 8.49 0 0-33.27 6.93-33.27 11.2-15.12Q12.36-9.78 12.82-6.4L12.82-6.4Q12.94-7.71 13.41-10.28 13.88-12.84 14.36-14.64L14.36-14.64 19.21-33.27 25.86-33.27 30.71-14.64Q31.02-13.55 31.5-10.79L31.5-10.79Q31.9-8.75 32.23-6.4L32.23-6.4Q32.43-7.91 32.95-10.72 33.47-13.52 33.87-15.12L33.87-15.12 38.09-33.27ZM63.12-15.6Q63.09-18.15 61.8-19.57 60.52-20.98 58.3-20.98 56.09-20.98 54.83-19.58 53.56-18.17 53.39-15.6L53.39-15.6 63.12-15.6ZM68.2-6.7L68.2-1.34Q64.61 0.46 59.25 0.46L59.25 0.46Q53.11 0.46 49.66-2.92 46.21-6.29 46.21-12.61 46.21-18.93 49.39-22.42L49.39-22.42Q52.63-25.91 58.13-25.91 63.62-25.91 66.63-22.83 69.64-19.74 69.64-14.36L69.64-14.36 69.64-11 53.24-11Q53.34-8.01 54.99-6.36 56.65-4.7 59.58-4.7L59.58-4.7Q63.95-4.7 68.2-6.7L68.2-6.7ZM90.71-7.15Q91.96-9.15 91.96-12.84 91.96-16.53 90.71-18.44 89.46-20.35 87.04-20.35 84.63-20.35 83.44-18.76 82.25-17.16 82.2-13.55L82.2-13.55 82.2-12.82Q82.2-8.75 83.42-6.95 84.63-5.16 87.29-5.16L87.29-5.16Q89.46-5.16 90.71-7.15ZM81.95-22.14L82.2-22.14Q84.68-25.91 89.32-25.91 93.96-25.91 96.5-22.38 99.04-18.86 99.04-12.66 99.04-6.47 96.41-3.01 93.78 0.46 89.26 0.46 84.73 0.46 82.2-2.81L82.2-2.81 81.75-2.81 80.59 0 75.28 0 75.28-35.39 82.2-35.39 82.2-27.17Q82.2-25.43 81.95-22.14L81.95-22.14ZM125.81-5.81L128.82-5.81Q139-5.81 139-16.76L139-16.76Q139-27.48 129.55-27.48L129.55-27.48 125.81-27.48 125.81-5.81ZM118.76-33.27L129.2-33.27Q137.31-33.27 141.82-28.98 146.33-24.7 146.33-16.72 146.33-8.75 141.66-4.37 136.98 0 128.16 0L128.16 0 118.76 0 118.76-33.27ZM168.05-15.6Q168.02-18.15 166.73-19.57 165.44-20.98 163.23-20.98 161.02-20.98 159.76-19.58 158.49-18.17 158.32-15.6L158.32-15.6 168.05-15.6ZM173.13-6.7L173.13-1.34Q169.54 0.46 164.18 0.46L164.18 0.46Q158.04 0.46 154.59-2.92 151.14-6.29 151.14-12.61 151.14-18.93 154.32-22.42L154.32-22.42Q157.56-25.91 163.06-25.91 168.55-25.91 171.56-22.83 174.57-19.74 174.57-14.36L174.57-14.36 174.57-11 158.16-11Q158.27-8.01 159.92-6.36 161.58-4.7 164.51-4.7L164.51-4.7Q168.88-4.7 173.13-6.7L173.13-6.7ZM202.12-25.43L192.44 0 185.31 0 175.63-25.43 182.89-25.43 187.79-10.95Q188.65-8.11 188.83-5.74L188.83-5.74 188.95-5.74Q189.05-7.86 189.99-10.95L189.99-10.95 194.87-25.43 202.12-25.43ZM221.13-15.6Q221.11-18.15 219.82-19.57 218.53-20.98 216.32-20.98 214.11-20.98 212.84-19.58 211.58-18.17 211.4-15.6L211.4-15.6 221.13-15.6ZM226.21-6.7L226.21-1.34Q222.62 0.46 217.26 0.46L217.26 0.46Q211.12 0.46 207.67-2.92 204.22-6.29 204.22-12.61 204.22-18.93 207.41-22.42L207.41-22.42Q210.64-25.91 216.14-25.91 221.64-25.91 224.65-22.83 227.65-19.74 227.65-14.36L227.65-14.36 227.65-11 211.25-11Q211.35-8.01 213.01-6.36 214.66-4.7 217.59-4.7L217.59-4.7Q221.97-4.7 226.21-6.7L226.21-6.7ZM233.29-35.39L240.22-35.39 240.22 0 233.29 0 233.29-35.39ZM262.27-18.47Q261.02-20.32 258.27-20.32 255.51-20.32 254.27-18.47 253.03-16.61 253.03-12.75 253.03-8.9 254.3-7 255.56-5.11 258.29-5.11 261.02-5.11 262.27-7 263.52-8.9 263.52-12.75 263.52-16.61 262.27-18.47ZM258.34-25.91L258.34-25.91Q263.88-25.99 267.29-22.36 270.7-18.73 270.6-12.77L270.6-12.77Q270.6-6.55 267.33-3.05 264.05 0.46 258.22 0.46L258.22 0.46Q252.68 0.51 249.28-3.13 245.88-6.77 245.96-12.77L245.96-12.77Q245.96-18.98 249.19-22.45L249.19-22.45Q252.45-25.91 258.34-25.91ZM283.27 0.88L283.27 0.88 283.27 11.2 276.34 11.2 276.34-25.43 281.98-25.43 282.96-22.14 283.27-22.14Q285.74-25.91 290.37-25.91 294.99-25.91 297.55-22.43 300.1-18.96 300.11-12.82 300.13-6.67 297.45-3.07 294.77 0.53 290.32 0.46L290.32 0.46Q285.79 0.46 283.27-2.81L283.27-2.81 282.91-2.81Q283.27 0.51 283.27 0.88ZM293.02-12.84L293.02-12.84Q293.02-16.63 291.86-18.49 290.7-20.35 288.2-20.35 285.69-20.35 284.5-18.76 283.32-17.16 283.27-13.55L283.27-13.55 283.27-12.82Q283.27-8.75 284.48-6.95 285.69-5.16 288.35-5.16L288.35-5.16Q293.02-5.16 293.02-12.84ZM321.18-15.6Q321.16-18.15 319.87-19.57 318.58-20.98 316.37-20.98 314.16-20.98 312.89-19.58 311.63-18.17 311.45-15.6L311.45-15.6 321.18-15.6ZM326.26-6.7L326.26-1.34Q322.67 0.46 317.32 0.46L317.32 0.46Q311.17 0.46 307.72-2.92 304.27-6.29 304.27-12.61 304.27-18.93 307.46-22.42L307.46-22.42Q310.69-25.91 316.19-25.91 321.69-25.91 324.7-22.83 327.7-19.74 327.7-14.36L327.7-14.36 327.7-11 311.3-11Q311.4-8.01 313.06-6.36 314.71-4.7 317.64-4.7L317.64-4.7Q322.02-4.7 326.26-6.7L326.26-6.7ZM347.55-25.91L347.55-25.91Q348.86-25.91 349.87-25.71L349.87-25.71 349.37-19.21Q348.51-19.44 347.32-19.44L347.32-19.44Q343.98-19.44 342.13-17.73 340.27-16.03 340.27-12.94L340.27-12.94 340.27 0 333.34 0 333.34-25.43 338.6-25.43 339.61-21.16 339.96-21.16Q341.18-23.33 343.2-24.62 345.22-25.91 347.55-25.91Z" opacity="1" transform="matrix(1,0,0,1,0,0)" fill="#fff" class="slogan-text-1" data-fill-palette-color="secondary" id="text-1"></path></svg></g></svg></g></svg></g></svg></g></svg></g></svg></g></svg></g></svg></g><defs></defs></svg><rect width="320" height="360" fill="none" stroke="none" visibility="hidden"></rect></g></svg></g></svg>